<svg width="50" height="50" viewBox="0 0 50 50" fill="none" xmlns="http://www.w3.org/2000/svg">
<circle cx="25" cy="25" r="25" fill="#FFDD0F"/>
<path d="M33 27C33.2652 27 33.5196 27.1054 33.7071 27.2929C33.8946 27.4804 34 27.7348 34 28V32C34 32.5304 33.7893 33.0391 33.4142 33.4142C33.0391 33.7893 32.5304 34 32 34H18C17.4696 34 16.9609 33.7893 16.5858 33.4142C16.2107 33.0391 16 32.5304 16 32V28C16 27.7348 16.1054 27.4804 16.2929 27.2929C16.4804 27.1054 16.7348 27 17 27C17.2652 27 17.5196 27.1054 17.7071 27.2929C17.8946 27.4804 18 27.7348 18 28V32H32V28C32 27.7348 32.1054 27.4804 32.2929 27.2929C32.4804 27.1054 32.7348 27 33 27ZM25 14C25.2652 14 25.5196 14.1054 25.7071 14.2929C25.8946 14.4804 26 14.7348 26 15V25.243L28.536 22.707C28.6282 22.6115 28.7386 22.5353 28.8606 22.4829C28.9826 22.4305 29.1138 22.4029 29.2466 22.4017C29.3794 22.4006 29.5111 22.4259 29.634 22.4762C29.7568 22.5265 29.8685 22.6007 29.9624 22.6946C30.0563 22.7885 30.1305 22.9001 30.1808 23.023C30.2311 23.1459 30.2564 23.2776 30.2553 23.4104C30.2541 23.5432 30.2265 23.6744 30.1741 23.7964C30.1217 23.9184 30.0455 24.0288 29.95 24.121L25.884 28.187C25.7679 28.3031 25.6301 28.3952 25.4784 28.4581C25.3268 28.5209 25.1642 28.5532 25 28.5532C24.8358 28.5532 24.6732 28.5209 24.5216 28.4581C24.3699 28.3952 24.2321 28.3031 24.116 28.187L20.05 24.121C19.9545 24.0288 19.8783 23.9184 19.8259 23.7964C19.7735 23.6744 19.7459 23.5432 19.7447 23.4104C19.7436 23.2776 19.7689 23.1459 19.8192 23.023C19.8695 22.9001 19.9437 22.7885 20.0376 22.6946C20.1315 22.6007 20.2431 22.5265 20.366 22.4762C20.4889 22.4259 20.6206 22.4006 20.7534 22.4017C20.8862 22.4029 21.0174 22.4305 21.1394 22.4829C21.2614 22.5353 21.3718 22.6115 21.464 22.707L24 25.243V15C24 14.7348 24.1054 14.4804 24.2929 14.2929C24.4804 14.1054 24.7348 14 25 14Z" fill="black"/>
</svg>
