<svg width="50" height="50" viewBox="0 0 50 50" fill="none" xmlns="http://www.w3.org/2000/svg">
<circle cx="25" cy="25" r="25" fill="#FF1F25"/>
<path d="M25.003 17.5305C26.1455 16.5077 27.6365 15.9614 29.1694 16.0038C30.7023 16.0462 32.1607 16.6741 33.245 17.7585C34.3283 18.8417 34.9563 20.2983 35.0002 21.8296C35.0441 23.361 34.5005 24.8511 33.481 25.9945L25.001 34.4865L16.523 25.9945C15.5022 24.8505 14.9582 23.3591 15.0025 21.8265C15.0468 20.2939 15.6762 18.8365 16.7614 17.7534C17.8465 16.6702 19.3052 16.0436 20.8378 16.0022C22.3705 15.9608 23.8609 16.5076 25.003 17.5305ZM31.829 19.1715C31.1066 18.4497 30.1353 18.0316 29.1144 18.0032C28.0935 17.9747 27.1005 18.338 26.339 19.0185L25.004 20.2165L23.668 19.0195C22.9096 18.3414 21.9214 17.9777 20.9044 18.0024C19.8874 18.0272 18.9181 18.4385 18.1936 19.1526C17.4691 19.8668 17.044 20.8301 17.0046 21.8467C16.9653 22.8632 17.3148 23.8565 17.982 24.6245L25.002 31.6555L32.022 24.6255C32.6863 23.8609 33.0359 22.8728 33.0001 21.8605C32.9642 20.8482 32.5457 19.8872 31.829 19.1715Z" fill="white"/>
</svg>
