<svg width="26" height="26" viewBox="0 0 26 26" fill="none" xmlns="http://www.w3.org/2000/svg">
<path d="M25.3922 5.89225L20.1077 0.60775C19.864 0.364 19.565 0.18525 19.24 0.0877499V0H1.04C0.46475 0 0 0.46475 0 1.04V24.96C0 25.5352 0.46475 26 1.04 26H24.96C25.5352 26 26 25.5352 26 24.96V7.36125C26 6.80875 25.7822 6.28225 25.3922 5.89225ZM8.84 2.34H17.16V5.72H8.84V2.34ZM23.66 23.66H2.34V2.34H6.76V6.76C6.76 7.33525 7.22475 7.8 7.8 7.8H18.2C18.7752 7.8 19.24 7.33525 19.24 6.76V3.0485L23.66 7.4685V23.66ZM13 10.725C10.4162 10.725 8.32 12.8212 8.32 15.405C8.32 17.9887 10.4162 20.085 13 20.085C15.5837 20.085 17.68 17.9887 17.68 15.405C17.68 12.8212 15.5837 10.725 13 10.725ZM13 18.005C11.5635 18.005 10.4 16.8415 10.4 15.405C10.4 13.9685 11.5635 12.805 13 12.805C14.4365 12.805 15.6 13.9685 15.6 15.405C15.6 16.8415 14.4365 18.005 13 18.005Z" fill="#0057FC"/>
</svg>
